{"asset":{"version":"2.0","generator":"THREE.GLTFExporter"},"scenes":[{"nodes":[0],"name":"AuxScene"}],"scene":0,"nodes":[{"mesh":0}],"bufferViews":[{"buffer":0,"byteOffset":0,"byteLength":189456,"target":34962,"byteStride":12},{"buffer":0,"byteOffset":189456,"byteLength":189456,"target":34962,"byteStride":12},{"buffer":0,"byteOffset":378912,"byteLength":189456,"target":34962,"byteStride":12},{"buffer":0,"byteOffset":568368,"byteLength":102000,"target":34963}],"buffers":[{"byteLength":670368,"uri":"data:application/octet-stream;base64,"}],"accessors":[{"bufferView":0,"componentType":5126,"count":15788,"max":[0.20618556439876556,0.15463916957378387,0.5],"min":[-0.20618556439876556,-0.15463916957378387,-0.5],"type":"VEC3"},{"bufferView":1,"componentType":5126,"count":15788,"max":[1,1,1],"min":[-1,-1,-1],"type":"VEC3"},{"bufferView":2,"componentType":5126,"count":15788,"max":[0.8941176533699036,0.5803921818733215,0.48627451062202454],"min":[0.0784313753247261,0,0],"type":"VEC3"},{"bufferView":3,"componentType":5125,"count":25500,"max":[15787],"min":[0],"type":"SCALAR"}],"materials":[{"pbrMetallicRoughness":{"metallicFactor":1,"roughnessFactor":1}}],"meshes":[{"primitives":[{"mode":4,"attributes":{"POSITION":0,"NORMAL":1,"COLOR_0":2},"indices":3,"material":0}]}]}